<svg width="590.4564819335938px" height="122px" xmlns="http://www.w3.org/2000/svg" viewBox="-45.228240966796875 14 590.4564819335938 122" style="background: rgba(0, 0, 0, 0);" preserveAspectRatio="xMidYMid"><defs><filter id="editing-vr"><feFlood flood-color="#f00" flood-opacity="0.7" result="c1"></feFlood><feFlood flood-color="#0000ff" flood-opacity="0.7" result="c3"></feFlood><feComposite operator="in" in="c1" in2="SourceAlpha" result="text-c1"></feComposite><feComposite operator="in" in="c3" in2="SourceAlpha" result="text-c3"></feComposite><feOffset in="text-c1" dx="5" dy="-1" result="text1"></feOffset><feOffset in="text-c3" dx="-5" dy="1" result="text3"></feOffset><feBlend in="SourceGraphic" in2="text1" mode="multiply" result="text4"></feBlend><feBlend in="text4" in2="text3" mode="multiply"></feBlend></filter></defs><g filter="url(#editing-vr)"><g transform="translate(42.74197578430176, 97.4950008392334)"><path d="M29.18 1.28L29.18 1.28L29.18 1.28Q20.99 1.28 20.22-10.37L20.22-10.37L9.22-10.37L9.22-10.37Q7.94-7.42 7.04-4.86L7.04-4.86L5.38 0L-3.58 0L16.58-42.24L30.34-42.24L33.02-11.14L33.02-11.14Q33.66-4.42 36.22-2.43L36.22-2.43L36.22-2.43Q34.37 1.28 29.18 1.28ZM14.72-23.17L11.20-15.04L20.03-15.04L19.26-31.49L19.26-33.22L14.72-23.17ZM69.06-33.92L69.06-33.92L69.06-33.92Q63.87-33.92 60.10-35.65L60.10-35.65L58.05-25.28L70.40-25.28L70.40-25.28Q70.40-21.89 68.70-19.74L68.70-19.74L68.70-19.74Q67.01-17.60 63.94-17.60L63.94-17.60L63.94-17.60Q60.61-17.60 57.54-18.82L57.54-18.82L57.54-18.82Q56.90-19.07 56.83-19.14L56.83-19.14L53.18 0L39.23 0L47.36-42.24L75.90-42.24L75.90-42.24Q75.90-38.34 74.08-36.13L74.08-36.13L74.08-36.13Q72.26-33.92 69.06-33.92ZM100.67 1.28L100.67 1.28L100.67 1.28Q92.48 1.28 91.71-10.37L91.71-10.37L80.70-10.37L80.70-10.37Q79.42-7.42 78.53-4.86L78.53-4.86L76.86 0L67.90 0L88.06-42.24L101.82-42.24L104.51-11.14L104.51-11.14Q105.15-4.42 107.71-2.43L107.71-2.43L107.71-2.43Q105.86 1.28 100.67 1.28ZM86.21-23.17L82.69-15.04L91.52-15.04L90.75-31.49L90.75-33.22L86.21-23.17ZM139.52 1.28L139.52 1.28L139.52 1.28Q131.33 1.28 130.56-10.37L130.56-10.37L119.55-10.37L119.55-10.37Q118.27-7.42 117.38-4.86L117.38-4.86L115.71 0L106.75 0L126.91-42.24L140.67-42.24L143.36-11.14L143.36-11.14Q144-4.42 146.56-2.43L146.56-2.43L146.56-2.43Q144.70 1.28 139.52 1.28ZM125.06-23.17L121.54-15.04L130.37-15.04L129.60-31.49L129.60-33.22L125.06-23.17ZM156.86 0L149.82 0L157.50-42.24L171.26-42.24L181.25-13.18L186.56-42.24L193.66-42.18L185.86 0L171.20 0L161.98-27.97L156.86 0ZM213.57-31.17L213.57-31.17L213.57-31.17Q211.39-32.83 211.39-36.38L211.39-36.38L211.39-36.38Q211.39-39.94 213.73-41.79L213.73-41.79L213.73-41.79Q216.06-43.65 220.10-43.65L220.10-43.65L220.10-43.65Q222.66-43.65 228.74-42.75L228.74-42.75L233.09-42.11L233.09-42.11Q235.26-41.86 237.54-41.86L237.54-41.86L237.54-41.86Q239.81-41.86 241.34-42.82L241.34-42.82L241.34-42.82Q243.65-40.77 243.65-37.82L243.65-37.82L243.65-37.82Q243.65-34.88 241.02-32.77L241.02-32.77L241.02-32.77Q238.34-30.53 234.88-30.53L234.88-30.53L234.88-30.53Q233.22-30.53 230.53-30.98L230.53-30.98L230.53-30.98Q227.39-21.12 227.39-14.27L227.39-14.27L227.39-14.27Q227.39-7.42 230.85-3.84L230.85-3.84L230.85-3.84Q229.25-0.96 226.88 0.16L226.88 0.16L226.88 0.16Q224.51 1.28 220.96 1.28L220.96 1.28L220.96 1.28Q217.41 1.28 215.20-0.67L215.20-0.67L215.20-0.67Q212.99-2.62 212.99-6.66L212.99-6.66L212.99-6.66Q212.99-11.33 215.55-19.01L215.55-19.01L215.55-19.01Q218.11-26.62 221.95-32.45L221.95-32.45L221.95-32.45Q220.10-32.64 218.18-32.64L218.18-32.64L218.18-32.64Q214.21-32.64 213.57-31.17ZM242.82-9.47L242.82-9.47L242.82-9.47Q242.82-11.97 243.46-15.17L243.46-15.17L248.64-42.24L262.78-42.24L257.66-14.98L257.66-14.98Q257.09-11.97 257.09-9.76L257.09-9.76L257.09-9.76Q257.09-7.55 258.02-6.40L258.02-6.40L258.02-6.40Q258.94-5.25 260.67-5.25L260.67-5.25L260.67-5.25Q262.40-5.25 263.49-5.70L263.49-5.70L263.49-5.70Q264.58-6.14 265.47-7.23L265.47-7.23L265.47-7.23Q267.20-9.41 268.29-14.98L268.29-14.98L273.47-42.24L283.14-42.24L278.02-15.04L278.02-15.04Q276.22-5.95 271.30-2.30L271.30-2.30L271.30-2.30Q266.50 1.28 257.02 1.28L257.02 1.28L257.02 1.28Q249.92 1.28 246.14-1.79L246.14-1.79L246.14-1.79Q242.82-4.48 242.82-9.47ZM308.29-4.80L308.29-4.80L308.29-4.80Q308.29-9.28 310.08-18.24L310.08-18.24L300.61-18.24L297.09 0L283.71 0L291.84-42.24L305.34-42.24L301.63-23.36L311.10-23.36L314.62-42.24L328.13-42.24L328.13-42.24Q327.23-37.50 326.08-32.19L326.08-32.19L323.90-21.76L323.90-21.76Q321.47-9.60 321.47-4.29L321.47-4.29L321.47-4.29Q321.47-2.11 322.18-0.90L322.18-0.90L322.18-0.90Q318.98 1.28 315.23 1.28L315.23 1.28L315.23 1.28Q311.49 1.28 309.89-0.51L309.89-0.51L309.89-0.51Q308.29-2.30 308.29-4.80ZM331.26-3.78L331.26-3.78L331.26-3.78Q331.26-6.21 333.15-7.55L333.15-7.55L333.15-7.55Q335.04-8.90 337.73-8.90L337.73-8.90L337.73-8.90Q340.42-8.90 342.05-7.55L342.05-7.55L342.05-7.55Q343.68-6.21 343.68-3.78L343.68-3.78L343.68-3.78Q343.68-1.34 341.86-0.03L341.86-0.03L341.86-0.03Q340.03 1.28 337.34 1.28L337.34 1.28L337.34 1.28Q334.66 1.28 332.96-0.03L332.96-0.03L332.96-0.03Q331.26-1.34 331.26-3.78ZM344.19-30.66L344.19-30.66L344.19-30.66Q342.78-30.27 339.97-30.27L339.97-30.27L339.97-30.27Q337.15-30.27 335.10-31.42L335.10-31.42L335.10-31.42Q333.06-32.58 333.06-34.59L333.06-34.59L333.06-34.59Q333.06-36.61 334.05-38.21L334.05-38.21L334.05-38.21Q335.04-39.81 337.15-40.96L337.15-40.96L337.15-40.96Q341.57-43.52 349.18-43.52L349.18-43.52L349.18-43.52Q356.80-43.52 359.81-41.41L359.81-41.41L359.81-41.41Q362.82-39.30 362.82-35.71L362.82-35.71L362.82-35.71Q362.82-30.27 357.38-26.05L357.38-26.05L357.38-26.05Q355.78-24.77 353.79-23.49L353.79-23.49L341.57-15.55L341.57-15.55Q339.07-13.89 339.07-11.46L339.07-11.46L339.07-11.46Q337.22-11.46 336.00-13.06L336.00-13.06L336.00-13.06Q334.78-14.66 334.78-16.90L334.78-16.90L334.78-16.90Q334.78-22.02 339.65-25.02L339.65-25.02L346.88-29.50L346.88-29.50Q349.89-31.30 351.49-34.43L351.49-34.43L351.49-34.43Q352.00-35.46 352.00-36.74L352.00-36.74L352.00-36.74Q352.00-39.68 349.06-39.68L349.06-39.68L349.06-39.68Q346.75-39.68 345.15-37.82L345.15-37.82L345.15-37.82Q343.74-36.16 343.68-33.98L343.68-33.98L343.68-33.98Q343.62-31.81 344.19-30.66ZM364.80-3.78L364.80-3.78L364.80-3.78Q364.80-6.21 366.69-7.55L366.69-7.55L366.69-7.55Q368.58-8.90 371.26-8.90L371.26-8.90L371.26-8.90Q373.95-8.90 375.58-7.55L375.58-7.55L375.58-7.55Q377.22-6.21 377.22-3.78L377.22-3.78L377.22-3.78Q377.22-1.34 375.39-0.03L375.39-0.03L375.39-0.03Q373.57 1.28 370.88 1.28L370.88 1.28L370.88 1.28Q368.19 1.28 366.50-0.03L366.50-0.03L366.50-0.03Q364.80-1.34 364.80-3.78ZM377.73-30.66L377.73-30.66L377.73-30.66Q376.32-30.27 373.50-30.27L373.50-30.27L373.50-30.27Q370.69-30.27 368.64-31.42L368.64-31.42L368.64-31.42Q366.59-32.58 366.59-34.59L366.59-34.59L366.59-34.59Q366.59-36.61 367.58-38.21L367.58-38.21L367.58-38.21Q368.58-39.81 370.69-40.96L370.69-40.96L370.69-40.96Q375.10-43.52 382.72-43.52L382.72-43.52L382.72-43.52Q390.34-43.52 393.34-41.41L393.34-41.41L393.34-41.41Q396.35-39.30 396.35-35.71L396.35-35.71L396.35-35.71Q396.35-30.27 390.91-26.05L390.91-26.05L390.91-26.05Q389.31-24.77 387.33-23.49L387.33-23.49L375.10-15.55L375.10-15.55Q372.61-13.89 372.61-11.46L372.61-11.46L372.61-11.46Q370.75-11.46 369.54-13.06L369.54-13.06L369.54-13.06Q368.32-14.66 368.32-16.90L368.32-16.90L368.32-16.90Q368.32-22.02 373.18-25.02L373.18-25.02L380.42-29.50L380.42-29.50Q383.42-31.30 385.02-34.43L385.02-34.43L385.02-34.43Q385.54-35.46 385.54-36.74L385.54-36.74L385.54-36.74Q385.54-39.68 382.59-39.68L382.59-39.68L382.59-39.68Q380.29-39.68 378.69-37.82L378.69-37.82L378.69-37.82Q377.28-36.16 377.22-33.98L377.22-33.98L377.22-33.98Q377.15-31.81 377.73-30.66ZM395.01-3.78L395.01-3.78L395.01-3.78Q395.01-6.21 396.83-7.52L396.83-7.52L396.83-7.52Q398.66-8.83 401.34-8.83L401.34-8.83L401.34-8.83Q404.03-8.83 405.73-7.52L405.73-7.52L405.73-7.52Q407.42-6.21 407.42-3.78L407.42-3.78L407.42-3.78Q407.42-1.34 405.54 0L405.54 0L405.54 0Q403.65 1.34 400.96 1.34L400.96 1.34L400.96 1.34Q398.27 1.34 396.64 0L396.64 0L396.64 0Q395.01-1.34 395.01-3.78ZM398.46-15.81L398.46-15.81L398.46-15.81Q398.46-16.26 398.59-16.90L398.59-16.90L403.58-42.62L403.58-42.62Q405.95-43.52 408.77-43.52L408.77-43.52L408.77-43.52Q411.58-43.52 413.06-41.73L413.06-41.73L413.06-41.73Q414.53-39.94 414.53-37.28L414.53-37.28L414.53-37.28Q414.53-34.62 413.50-31.65L413.50-31.65L413.50-31.65Q412.48-28.67 411.23-25.66L411.23-25.66L411.23-25.66Q409.98-22.66 408.93-19.55L408.93-19.55L408.93-19.55Q407.87-16.45 407.81-13.18L407.81-13.18L407.81-13.18Q406.34-11.52 403.78-11.52L403.78-11.52L403.78-11.52Q401.22-11.52 399.84-12.70L399.84-12.70L399.84-12.70Q398.46-13.89 398.46-15.81Z" fill="#444"></path></g></g><style>text {
  font-size: 64px;
  font-family: Arial Black;
  dominant-baseline: central;
  text-anchor: middle;
}</style></svg>